# xmcd
#
# Track frame offsets: 
#        150
#        32373
#        84903
#        114066
#        163340
#        191155
#        209622
#        227880
#        246215
#        264462
#        286248
#        304929
#
# Disc length: 4330 seconds
#
# Revision: 0
# Processed by: cddbd v1.5.2PL0 Copyright (c) Steve Scherf et al.
# Submitted via: ExactAudioCopyFreeDBPlugin 1.0
#
DISCID=a110e80c
DTITLE=珠影白天鹅音像 - 中国十大民乐精华CD2
DYEAR=2014
DGENRE=A Cappella
TTITLE0=十面埋伏
TTITLE1=高山流水
TTITLE2=汉宫秋月
TTITLE3=春江花月夜
TTITLE4=二胡映月
TTITLE5=梅花三弄
TTITLE6=阳春白雪
TTITLE7=渔舟晚唱
TTITLE8=鸭子拌嘴
TTITLE9=阳关三叠
TTITLE10=平湖秋月
TTITLE11=苏武思乡
EXTD=
EXTT0=
EXTT1=
EXTT2=
EXTT3=
EXTT4=
EXTT5=
EXTT6=
EXTT7=
EXTT8=
EXTT9=
EXTT10=
EXTT11=
PLAYORDER=
